<?xml version="1.0" encoding="iso-8859-1"?>
<!-- Generator: Adobe Illustrator 16.0.0, SVG Export Plug-In . SVG Version: 6.00 Build 0)  -->
<!DOCTYPE svg PUBLIC "-//W3C//DTD SVG 1.1//EN" "http://www.w3.org/Graphics/SVG/1.1/DTD/svg11.dtd">
<svg version="1.1" id="Capa_1" xmlns="http://www.w3.org/2000/svg" xmlns:xlink="http://www.w3.org/1999/xlink" x="0px" y="0px"
	 width="38.058px" height="38.057px" viewBox="0 0 38.058 38.057" style="enable-background:new 0 0 38.058 38.057;"
	 xml:space="preserve">
<g>
	<g>
		<path d="M28.029,8.587c-2.973,0-5.635,1.301-7.472,3.355c0.638,1.43,1,3.009,1,4.674c0,2.519-0.805,4.897-2.287,6.873
			c0.499,0.892,1.127,1.699,1.862,2.396l-0.335,5.586l4.765-3.145c0.791,0.201,1.613,0.318,2.467,0.318
			c5.539,0,10.028-4.49,10.028-10.029C38.058,13.078,33.568,8.587,28.029,8.587z M22.089,17.077c0-0.994,0.806-1.8,1.8-1.8
			s1.801,0.806,1.801,1.8c0,0.994-0.807,1.8-1.801,1.8S22.089,18.071,22.089,17.077z M28.029,25.386
			c-2.771,0-5.016-2.198-5.016-3.463s2.245,0.054,5.016,0.054c2.77,0,5.014-1.318,5.014-0.054
			C33.044,23.19,30.8,25.386,28.029,25.386z M32.17,18.877c-0.994,0-1.801-0.806-1.801-1.8c0-0.994,0.807-1.8,1.801-1.8
			s1.8,0.806,1.8,1.8C33.97,18.071,33.164,18.877,32.17,18.877z"/>
		<path d="M20.058,16.615c0-5.539-4.49-10.029-10.029-10.029C4.489,6.586,0,11.076,0,16.615c0,5.54,4.489,10.03,10.029,10.03
			c0.853,0,1.677-0.117,2.467-0.318l4.764,3.145l-0.335-5.586C18.851,22.057,20.058,19.481,20.058,16.615z M4.089,15.077
			c0-0.994,0.806-1.8,1.8-1.8c0.994,0,1.8,0.806,1.8,1.8c0,0.994-0.806,1.8-1.8,1.8C4.895,16.877,4.089,16.071,4.089,15.077z
			 M10.029,23.386c-2.77,0-5.014-2.198-5.014-3.463s2.244,0.054,5.014,0.054s5.015-1.318,5.015-0.054
			C15.043,21.19,12.799,23.386,10.029,23.386z M14.169,16.877c-0.994,0-1.8-0.806-1.8-1.8c0-0.994,0.806-1.8,1.8-1.8
			c0.994,0,1.8,0.806,1.8,1.8C15.969,16.071,15.163,16.877,14.169,16.877z"/>
	</g>
</g>
<g>
</g>
<g>
</g>
<g>
</g>
<g>
</g>
<g>
</g>
<g>
</g>
<g>
</g>
<g>
</g>
<g>
</g>
<g>
</g>
<g>
</g>
<g>
</g>
<g>
</g>
<g>
</g>
<g>
</g>
</svg>
